<svg width="14" height="9" viewBox="0 0 14 9" fill="none" xmlns="http://www.w3.org/2000/svg">
<path d="M7.31414 7.93513L12.7935 2.46057C13.0067 2.25896 13.1133 2.0072 13.1133 1.7048C13.1133 1.4024 13.0066 1.15064 12.7935 0.949028L12.1621 0.310872C11.9545 0.103702 11.7021 0.000117521 11.4047 0.000117508C11.113 0.000117495 10.8576 0.103673 10.6388 0.310872L6.55656 4.39171L2.46593 0.310695C2.2583 0.103585 2.00591 -4.80783e-07 1.70849 -4.93753e-07C1.41675 -5.06476e-07 1.16127 0.103555 0.942587 0.310695L0.311325 0.94891C0.103695 1.15605 -0.000104966 1.40807 -0.000104979 1.70468C-0.000104992 2.00141 0.103695 2.25337 0.311325 2.46045L5.79066 7.93513C6.00949 8.14236 6.26482 8.24603 6.55659 8.24603C6.85399 8.24606 7.10651 8.14236 7.31414 7.93513Z" fill="#323B40"/>
</svg>
