<svg width="291" height="52" viewBox="0 0 291 52" fill="none" xmlns="http://www.w3.org/2000/svg">
<path d="M3.52 30C3.30667 30 3.12533 29.936 2.976 29.808C2.848 29.6587 2.784 29.4773 2.784 29.264V8.368C2.784 8.13333 2.848 7.952 2.976 7.824C3.12533 7.67467 3.30667 7.6 3.52 7.6H4.992C5.376 7.6 5.64267 7.74933 5.792 8.048L16.416 24.368V8.368C16.416 8.13333 16.48 7.952 16.608 7.824C16.7573 7.67467 16.9387 7.6 17.152 7.6H18.688C18.9227 7.6 19.104 7.67467 19.232 7.824C19.3813 7.952 19.456 8.13333 19.456 8.368V29.232C19.456 29.4453 19.3813 29.6267 19.232 29.776C19.104 29.9253 18.9333 30 18.72 30H17.184C16.864 30 16.608 29.8507 16.416 29.552L5.824 13.392V29.264C5.824 29.4773 5.74933 29.6587 5.6 29.808C5.45067 29.936 5.26933 30 5.056 30H3.52ZM27.69 30C27.4767 30 27.2953 29.936 27.146 29.808C27.018 29.6587 26.954 29.4773 26.954 29.264V8.336C26.954 8.12267 27.018 7.952 27.146 7.824C27.2953 7.67467 27.4767 7.6 27.69 7.6H29.386C29.5993 7.6 29.77 7.67467 29.898 7.824C30.0473 7.952 30.122 8.12267 30.122 8.336V29.264C30.122 29.4773 30.0473 29.6587 29.898 29.808C29.77 29.936 29.5993 30 29.386 30H27.69ZM45.688 30.32C42.8293 30.32 40.6533 29.552 39.16 28.016C37.688 26.48 36.8987 24.3573 36.792 21.648C36.7707 21.072 36.76 20.1333 36.76 18.832C36.76 17.5093 36.7707 16.5493 36.792 15.952C36.8987 13.264 37.6987 11.152 39.192 9.616C40.6853 8.05867 42.8507 7.28 45.688 7.28C47.5867 7.28 49.1973 7.62133 50.52 8.304C51.8427 8.96533 52.8453 9.84 53.528 10.928C54.2107 12.016 54.584 13.1787 54.648 14.416V14.48C54.648 14.6507 54.5733 14.8 54.424 14.928C54.296 15.0347 54.1467 15.088 53.976 15.088H52.216C51.7893 15.088 51.5227 14.8427 51.416 14.352C51.0533 12.752 50.4027 11.632 49.464 10.992C48.5253 10.3307 47.2667 10 45.688 10C42.0187 10 40.12 12.0373 39.992 16.112C39.9707 16.688 39.96 17.5733 39.96 18.768C39.96 19.9627 39.9707 20.8693 39.992 21.488C40.12 25.5627 42.0187 27.6 45.688 27.6C47.2667 27.6 48.5253 27.28 49.464 26.64C50.424 25.9787 51.0747 24.848 51.416 23.248C51.48 22.9707 51.576 22.7787 51.704 22.672C51.832 22.5653 52.0027 22.512 52.216 22.512H53.976C54.168 22.512 54.328 22.576 54.456 22.704C54.6053 22.8107 54.6693 22.96 54.648 23.152C54.584 24.4107 54.2107 25.584 53.528 26.672C52.8453 27.76 51.8427 28.6453 50.52 29.328C49.1973 29.9893 47.5867 30.32 45.688 30.32ZM61.5925 30C61.3792 30 61.1978 29.936 61.0485 29.808C60.9205 29.6587 60.8565 29.4773 60.8565 29.264V8.368C60.8565 8.13333 60.9205 7.952 61.0485 7.824C61.1978 7.67467 61.3792 7.6 61.5925 7.6H63.2245C63.4592 7.6 63.6405 7.67467 63.7685 7.824C63.9178 7.952 63.9925 8.13333 63.9925 8.368V17.2H75.0005V8.368C75.0005 8.13333 75.0645 7.952 75.1925 7.824C75.3418 7.67467 75.5232 7.6 75.7365 7.6H77.3685C77.6032 7.6 77.7845 7.67467 77.9125 7.824C78.0618 7.952 78.1365 8.13333 78.1365 8.368V29.264C78.1365 29.4773 78.0618 29.6587 77.9125 29.808C77.7632 29.936 77.5818 30 77.3685 30H75.7365C75.5232 30 75.3418 29.936 75.1925 29.808C75.0645 29.6587 75.0005 29.4773 75.0005 29.264V20.08H63.9925V29.264C63.9925 29.4773 63.9178 29.6587 63.7685 29.808C63.6192 29.936 63.4378 30 63.2245 30H61.5925ZM86.3563 30C86.1429 30 85.9616 29.936 85.8123 29.808C85.6843 29.6587 85.6203 29.4773 85.6203 29.264V8.368C85.6203 8.13333 85.6843 7.952 85.8123 7.824C85.9616 7.67467 86.1429 7.6 86.3563 7.6H99.5723C99.7856 7.6 99.9563 7.67467 100.084 7.824C100.234 7.952 100.308 8.13333 100.308 8.368V9.584C100.308 9.79733 100.244 9.97867 100.116 10.128C99.9883 10.256 99.8069 10.32 99.5723 10.32H88.6923V17.328H98.8683C99.0816 17.328 99.2523 17.4027 99.3803 17.552C99.5296 17.68 99.6043 17.8613 99.6043 18.096V19.28C99.6043 19.4933 99.5296 19.6747 99.3803 19.824C99.2523 19.952 99.0816 20.016 98.8683 20.016H88.6923V27.28H99.8283C100.063 27.28 100.244 27.344 100.372 27.472C100.5 27.6 100.564 27.7813 100.564 28.016V29.264C100.564 29.4773 100.49 29.6587 100.34 29.808C100.212 29.936 100.042 30 99.8283 30H86.3563ZM117.446 30C117.233 30 117.052 29.936 116.902 29.808C116.774 29.6587 116.71 29.4773 116.71 29.264V8.336C116.71 8.12267 116.774 7.952 116.902 7.824C117.052 7.67467 117.233 7.6 117.446 7.6H119.142C119.356 7.6 119.526 7.67467 119.654 7.824C119.804 7.952 119.878 8.12267 119.878 8.336V27.216H130.502C130.737 27.216 130.918 27.2907 131.046 27.44C131.196 27.568 131.27 27.7493 131.27 27.984V29.264C131.27 29.4773 131.196 29.6587 131.046 29.808C130.897 29.936 130.716 30 130.502 30H117.446ZM137.398 30C137.184 30 137.003 29.936 136.854 29.808C136.726 29.6587 136.662 29.4773 136.662 29.264V8.336C136.662 8.12267 136.726 7.952 136.854 7.824C137.003 7.67467 137.184 7.6 137.398 7.6H139.094C139.307 7.6 139.478 7.67467 139.606 7.824C139.755 7.952 139.83 8.12267 139.83 8.336V29.264C139.83 29.4773 139.755 29.6587 139.606 29.808C139.478 29.936 139.307 30 139.094 30H137.398ZM148.068 30C147.854 30 147.673 29.936 147.524 29.808C147.396 29.6587 147.332 29.4773 147.332 29.264V8.368C147.332 8.13333 147.396 7.952 147.524 7.824C147.673 7.67467 147.854 7.6 148.068 7.6H161.124C161.358 7.6 161.54 7.67467 161.668 7.824C161.817 7.952 161.892 8.13333 161.892 8.368V9.648C161.892 9.86133 161.817 10.0427 161.668 10.192C161.54 10.32 161.358 10.384 161.124 10.384H150.436V17.84H160.484C160.718 17.84 160.9 17.9147 161.028 18.064C161.177 18.192 161.252 18.3733 161.252 18.608V19.888C161.252 20.1013 161.177 20.2827 161.028 20.432C160.878 20.56 160.697 20.624 160.484 20.624H150.436V29.264C150.436 29.4773 150.361 29.6587 150.212 29.808C150.062 29.936 149.881 30 149.668 30H148.068ZM168.675 30C168.462 30 168.28 29.936 168.131 29.808C168.003 29.6587 167.939 29.4773 167.939 29.264V8.368C167.939 8.13333 168.003 7.952 168.131 7.824C168.28 7.67467 168.462 7.6 168.675 7.6H181.891C182.104 7.6 182.275 7.67467 182.403 7.824C182.552 7.952 182.627 8.13333 182.627 8.368V9.584C182.627 9.79733 182.563 9.97867 182.435 10.128C182.307 10.256 182.126 10.32 181.891 10.32H171.011V17.328H181.187C181.4 17.328 181.571 17.4027 181.699 17.552C181.848 17.68 181.923 17.8613 181.923 18.096V19.28C181.923 19.4933 181.848 19.6747 181.699 19.824C181.571 19.952 181.4 20.016 181.187 20.016H171.011V27.28H182.147C182.382 27.28 182.563 27.344 182.691 27.472C182.819 27.6 182.883 27.7813 182.883 28.016V29.264C182.883 29.4773 182.808 29.6587 182.659 29.808C182.531 29.936 182.36 30 182.147 30H168.675ZM196.465 30.32C194.695 30.32 193.159 30.0427 191.857 29.488C190.577 28.9333 189.596 28.208 188.913 27.312C188.231 26.3947 187.868 25.4133 187.825 24.368C187.825 24.1973 187.889 24.048 188.017 23.92C188.167 23.7707 188.337 23.696 188.529 23.696H190.161C190.567 23.696 190.844 23.9093 190.993 24.336C191.185 25.232 191.729 26 192.625 26.64C193.543 27.28 194.823 27.6 196.465 27.6C198.236 27.6 199.569 27.2907 200.465 26.672C201.361 26.032 201.809 25.1467 201.809 24.016C201.809 23.2907 201.585 22.704 201.137 22.256C200.711 21.808 200.071 21.4133 199.217 21.072C198.364 20.7307 197.084 20.304 195.377 19.792C193.713 19.3227 192.391 18.8213 191.409 18.288C190.428 17.7547 189.692 17.0933 189.201 16.304C188.711 15.5147 188.465 14.5227 188.465 13.328C188.465 12.176 188.775 11.1413 189.393 10.224C190.033 9.30667 190.94 8.592 192.113 8.08C193.287 7.54667 194.684 7.28 196.305 7.28C197.969 7.28 199.399 7.57867 200.593 8.176C201.788 8.752 202.695 9.488 203.313 10.384C203.932 11.28 204.263 12.176 204.305 13.072C204.305 13.2427 204.241 13.392 204.113 13.52C204.007 13.648 203.847 13.712 203.633 13.712H201.937C201.489 13.712 201.212 13.5093 201.105 13.104C200.977 12.208 200.476 11.472 199.601 10.896C198.727 10.2987 197.628 10 196.305 10C194.855 10 193.713 10.2773 192.881 10.832C192.049 11.3867 191.633 12.208 191.633 13.296C191.633 14.0213 191.825 14.6187 192.209 15.088C192.615 15.5573 193.223 15.9733 194.033 16.336C194.844 16.6773 196.028 17.072 197.585 17.52C199.399 18.0107 200.828 18.5227 201.873 19.056C202.919 19.568 203.697 20.2187 204.209 21.008C204.721 21.776 204.977 22.7573 204.977 23.952C204.977 25.936 204.209 27.4933 202.673 28.624C201.137 29.7547 199.068 30.32 196.465 30.32ZM216.473 30C216.26 30 216.079 29.936 215.929 29.808C215.801 29.6587 215.737 29.4773 215.737 29.264V10.448H209.593C209.38 10.448 209.199 10.384 209.049 10.256C208.921 10.1067 208.857 9.92533 208.857 9.712V8.368C208.857 8.15466 208.921 7.97333 209.049 7.824C209.199 7.67467 209.38 7.6 209.593 7.6H225.017C225.252 7.6 225.433 7.67467 225.561 7.824C225.711 7.952 225.785 8.13333 225.785 8.368V9.712C225.785 9.92533 225.711 10.1067 225.561 10.256C225.412 10.384 225.231 10.448 225.017 10.448H218.905V29.264C218.905 29.4773 218.831 29.6587 218.681 29.808C218.532 29.936 218.351 30 218.137 30H216.473ZM238.013 30C237.799 30 237.618 29.936 237.469 29.808C237.341 29.6587 237.277 29.4773 237.277 29.264V21.712L229.565 8.656C229.565 8.61333 229.554 8.54933 229.533 8.464C229.49 8.37867 229.469 8.304 229.469 8.24C229.469 8.06933 229.533 7.92 229.661 7.792C229.789 7.664 229.938 7.6 230.109 7.6H231.773C232.135 7.6 232.413 7.78133 232.605 8.144L238.845 18.512L245.085 8.144C245.319 7.78133 245.607 7.6 245.949 7.6H247.581C247.773 7.6 247.933 7.664 248.061 7.792C248.189 7.92 248.253 8.06933 248.253 8.24C248.253 8.34667 248.21 8.48533 248.125 8.656L240.445 21.712V29.264C240.445 29.4773 240.37 29.6587 240.221 29.808C240.071 29.936 239.89 30 239.677 30H238.013ZM254.668 30C254.454 30 254.273 29.936 254.124 29.808C253.996 29.6587 253.932 29.4773 253.932 29.264V8.336C253.932 8.12267 253.996 7.952 254.124 7.824C254.273 7.67467 254.454 7.6 254.668 7.6H256.364C256.577 7.6 256.748 7.67467 256.876 7.824C257.025 7.952 257.1 8.12267 257.1 8.336V27.216H267.724C267.958 27.216 268.14 27.2907 268.268 27.44C268.417 27.568 268.492 27.7493 268.492 27.984V29.264C268.492 29.4773 268.417 29.6587 268.268 29.808C268.118 29.936 267.937 30 267.724 30H254.668ZM274.619 30C274.405 30 274.224 29.936 274.075 29.808C273.947 29.6587 273.883 29.4773 273.883 29.264V8.368C273.883 8.13333 273.947 7.952 274.075 7.824C274.224 7.67467 274.405 7.6 274.619 7.6H287.835C288.048 7.6 288.219 7.67467 288.347 7.824C288.496 7.952 288.571 8.13333 288.571 8.368V9.584C288.571 9.79733 288.507 9.97867 288.379 10.128C288.251 10.256 288.069 10.32 287.835 10.32H276.955V17.328H287.131C287.344 17.328 287.515 17.4027 287.643 17.552C287.792 17.68 287.867 17.8613 287.867 18.096V19.28C287.867 19.4933 287.792 19.6747 287.643 19.824C287.515 19.952 287.344 20.016 287.131 20.016H276.955V27.28H288.091C288.325 27.28 288.507 27.344 288.635 27.472C288.763 27.6 288.827 27.7813 288.827 28.016V29.264C288.827 29.4773 288.752 29.6587 288.603 29.808C288.475 29.936 288.304 30 288.091 30H274.619Z" fill="white"/>
<line x1="109.5" y1="51.1875" x2="177.5" y2="51.1875" stroke="#0FB8AE"/>
</svg>
