<?xml version="1.0" encoding="utf-8"?>
<!-- Generator: Adobe Illustrator 25.2.0, SVG Export Plug-In . SVG Version: 6.00 Build 0)  -->
<svg version="1.1" id="Layer_1" xmlns="http://www.w3.org/2000/svg" xmlns:xlink="http://www.w3.org/1999/xlink" x="0px" y="0px"
	 width="24px" height="24px" viewBox="0 0 24 24" style="enable-background:new 0 0 24 24;" xml:space="preserve">
<style type="text/css">
	.st0{fill:none;}
	.st1{fill:#0FB8AE;}
</style>
<rect class="st0" width="24" height="24"/>
<path class="st1" d="M11,13.5V2L3,13.5H11z M21,13.5C21,6.5,14.5,1,12.5,1c0,0,1,3,1,6.5s-1,6-1,6H21z M22,15H2
	c0.3,1.5,1.2,2.8,2.3,3.7C5,18.5,5.6,18,6,17.5C6.7,18.3,7.8,19,9,19s2.3-0.7,3-1.5c0.7,0.8,1.8,1.5,3,1.5s2.3-0.7,3-1.5
	c0.5,0.5,1,1,1.7,1.2C20.8,17.8,21.7,16.5,22,15z M22,23v-2h-1c-1,0-2.1-0.4-3-1c-1.8,1.3-4.2,1.3-6,0c-1.8,1.3-4.2,1.3-6,0
	c-0.9,0.6-2,1-3,1H2v2h1c1,0,2.1-0.2,3-0.8c1.9,1,4.1,1,6,0c1.9,1,4.1,1,6,0l0,0c1,0.5,2,0.8,3,0.8H22z"/>
</svg>
